<svg id="Layer_1" data-name="Layer 1" xmlns="http://www.w3.org/2000/svg" xmlns:xlink="http://www.w3.org/1999/xlink" viewBox="0 0 278 45.7"><defs><style>.cls-1,.cls-2{fill:none;}.cls-2{clip-rule:evenodd;}.cls-3{clip-path:url(#clip-path);}.cls-4{clip-path:url(#clip-path-2);}.cls-5{isolation:isolate;}.cls-6{clip-path:url(#clip-path-3);}.cls-7{clip-path:url(#clip-path-4);}.cls-8{fill:#00ae64;}.cls-9{clip-path:url(#clip-path-6);}.cls-10{fill:#fff;}.cls-11{clip-path:url(#clip-path-8);}.cls-12{fill:#1b459c;}.cls-13{clip-path:url(#clip-path-10);}.cls-14{clip-path:url(#clip-path-12);}.cls-15{clip-path:url(#clip-path-14);}.cls-16{clip-path:url(#clip-path-16);}.cls-17{clip-path:url(#clip-path-18);}.cls-18{clip-path:url(#clip-path-20);}.cls-19{clip-path:url(#clip-path-22);}.cls-20{clip-path:url(#clip-path-24);}.cls-21{clip-path:url(#clip-path-26);}.cls-22{clip-path:url(#clip-path-28);}.cls-23{clip-path:url(#clip-path-30);}.cls-24{clip-path:url(#clip-path-32);}.cls-25{clip-path:url(#clip-path-34);}.cls-26{clip-path:url(#clip-path-36);}.cls-27{clip-path:url(#clip-path-38);}</style><clipPath id="clip-path" transform="translate(-355.14 -790.65)"><rect class="cls-1" x="360.14" y="795.65" width="40.1" height="35.7"/></clipPath><clipPath id="clip-path-2" transform="translate(-355.14 -790.65)"><rect class="cls-1" x="360.14" y="794.65" width="268" height="37"/></clipPath><clipPath id="clip-path-3" transform="translate(-355.14 -790.65)"><rect class="cls-1" x="360.14" y="795.65" width="41" height="36"/></clipPath><clipPath id="clip-path-4" transform="translate(-355.14 -790.65)"><path class="cls-2" d="M400.24,806.35a10.78,10.78,0,0,0-10.7-10.7h-29.4v25a10.78,10.78,0,0,0,10.7,10.7h29.4Z"/></clipPath><clipPath id="clip-path-6" transform="translate(-355.14 -790.65)"><path class="cls-2" d="M389.54,797.55H362v23.1a8.71,8.71,0,0,0,8.7,8.7h27.5v-23.1a8.71,8.71,0,0,0-8.7-8.7"/></clipPath><clipPath id="clip-path-8" transform="translate(-355.14 -790.65)"><path class="cls-2" d="M389.44,798.85h-26.1v21.8a7.49,7.49,0,0,0,7.5,7.5H397v-21.8a7.58,7.58,0,0,0-7.6-7.5"/></clipPath><clipPath id="clip-path-10" transform="translate(-355.14 -790.65)"><path class="cls-2" d="M378.14,824.65l6-22.8h-1.4l-6,22.9Zm12.2-7.8a4.46,4.46,0,0,0,2.6-1.4,3.14,3.14,0,0,0,.6-2.8,4.06,4.06,0,0,0-1.6-2.3,4,4,0,0,0-2.3-.8h-6.4a5,5,0,0,1,3.3,3.3s1,3.1-3.2,4h0a6.17,6.17,0,0,1,2.2,1.5,4.6,4.6,0,0,1,1,1.8c.7,3.3-3.3,4.1-3.3,4.1h6.2a4.07,4.07,0,0,0,3.3-1.4,3,3,0,0,0,.8-2.7,3.6,3.6,0,0,0-1.3-2.1A6.15,6.15,0,0,0,390.34,816.85Zm-13.2-1.4a3.34,3.34,0,0,0,.5-3,4.89,4.89,0,0,0-1.7-2.5,5.13,5.13,0,0,0-2.4-1h-6.8a5.47,5.47,0,0,1,3.6,3.5c.7,3.5-3.3,4.2-3.3,4.2h7.5A3.52,3.52,0,0,0,377.14,815.45Zm-.7-13-.1,5.1h-9.7v-5.1Z"/></clipPath><clipPath id="clip-path-12" transform="translate(-355.14 -790.65)"><path class="cls-2" d="M425.84,812.75c0,1.5-1.4,1.9-3.1,1.9h-4.3v4c1.5.3,2.2.9,2.2,1.3v.1h-5.1V807c-.9-.3-1.6-.9-1.6-1.3v-.1h13.3v3.6h-.1c-.4,0-1-.7-1.3-1.6h-7.4v4.9h7.4Z"/></clipPath><clipPath id="clip-path-14" transform="translate(-355.14 -790.65)"><path class="cls-2" d="M433.54,820.05h-5.3V820c0-.4.6-1,1.3-1.3v-9.4c-.7-.2-1.3-.9-1.3-1.3v-.1h5.3v.1c0,.4-.6,1-1.3,1.3v9.4c.7.2,1.3.9,1.3,1.3Z"/></clipPath><clipPath id="clip-path-16" transform="translate(-355.14 -790.65)"><path class="cls-2" d="M446.14,813.45c0,1.5-1.4,1.9-3.1,1.9h-3.9v3.3c1,.2,1.8.9,1.8,1.3v.1h-4.4v-10.8c-.7-.2-1.3-.9-1.3-1.3v-.1H448v3.3h-.1c-.4,0-1-.6-1.3-1.3h-7.5v3.6Z"/></clipPath><clipPath id="clip-path-18" transform="translate(-355.14 -790.65)"><path class="cls-2" d="M461.44,807.85v3.3h-.1c-.4,0-1-.6-1.3-1.3h-3.5v8.8c1,.2,1.8.9,1.8,1.3v.1h-6.2V820c0-.4.8-1,1.8-1.3v-8.8h-3.4c-.2.7-.9,1.3-1.3,1.3h-.1v-3.3Z"/></clipPath><clipPath id="clip-path-20" transform="translate(-355.14 -790.65)"><path class="cls-2" d="M466.74,812.85a11.6,11.6,0,0,1,3.7-.3,24.33,24.33,0,0,1,3.8.3v-3.6c-.7-.2-1.3-.9-1.3-1.3v-.1h5.3v.1c0,.4-.6,1-1.3,1.3v9.4c.7.2,1.3.9,1.3,1.3v.1h-3.9v-5a15.83,15.83,0,0,0-3.8-.3,23.08,23.08,0,0,0-3.7.3v3.6c.7.2,1.3.9,1.3,1.3v.1h-4v-10.8c-.7-.2-1.3-.9-1.3-1.3v-.1h5.3v.1c0,.4-.6,1-1.3,1.3Z"/></clipPath><clipPath id="clip-path-22" transform="translate(-355.14 -790.65)"><path class="cls-2" d="M501.14,805.55v3.6c-.4,0-1.1-.7-1.4-1.6h-4.4v11c.9.3,1.6.9,1.6,1.3h-6c0-.4.7-1.1,1.6-1.3v-10.9h-4.4c-.3.9-.9,1.6-1.3,1.6h-.1v-3.6h14.4Z"/></clipPath><clipPath id="clip-path-24" transform="translate(-355.14 -790.65)"><path class="cls-2" d="M506.44,812.85a11.6,11.6,0,0,1,3.7-.3,24.33,24.33,0,0,1,3.8.3v-3.6c-.7-.2-1.3-.9-1.3-1.3v-.1h5.3v.1c0,.4-.6,1-1.3,1.3v9.4c.7.2,1.3.9,1.3,1.3v.1h-4v-5a15.83,15.83,0,0,0-3.8-.3,23.08,23.08,0,0,0-3.7.3v3.6c.7.2,1.3.9,1.3,1.3v.1h-4v-10.8c-.7-.2-1.3-.9-1.3-1.3v-.1h5.3v.1c0,.4-.6,1-1.3,1.3Z"/></clipPath><clipPath id="clip-path-26" transform="translate(-355.14 -790.65)"><path class="cls-2" d="M524.74,820.05h-5.3V820c0-.4.6-1,1.3-1.3v-9.4c-.7-.2-1.3-.9-1.3-1.3v-.1h5.3v.1c0,.4-.6,1-1.3,1.3v9.4c.7.2,1.3.9,1.3,1.3Z"/></clipPath><clipPath id="clip-path-28" transform="translate(-355.14 -790.65)"><path class="cls-2" d="M531.64,820.05h-3.9v-10.8c-.7-.2-1.3-.9-1.3-1.3v-.1H535c3,0,4.9,1,4.9,3.6,0,2-1.3,3.1-3.3,3.4l2.6,3.8c.7.1,1.5.8,1.5,1.3v.1H537l-3.3-5h-3.3v3.6c.7.2,1.3.9,1.3,1.3Zm3-6.8c2.2,0,2.7-.7,2.7-1.7s-.4-1.7-2.7-1.7h-4.2v3.4Z"/></clipPath><clipPath id="clip-path-30" transform="translate(-355.14 -790.65)"><path class="cls-2" d="M542.84,809.25c-.7-.2-1.3-.9-1.3-1.3v-.1H550c3.4,0,6,2,6,6.1s-2.6,6.1-6,6.1h-7.2Zm6.2,8.8c2.9,0,4.3-.9,4.3-4.1s-1.4-4.1-4.3-4.1h-3.6v8.2Z"/></clipPath><clipPath id="clip-path-32" transform="translate(-355.14 -790.65)"><path class="cls-2" d="M574.74,817.75c2.5,0,3.4-.7,3.4-2s-.9-2.1-3.4-2.1h-5.6v4.1Zm-.1-6.4c1.8,0,3.1-.4,3.1-1.9s-1.3-1.6-3.1-1.6h-5.5v3.5Zm.3-5.7c3.4,0,5.6.9,5.6,3.6,0,1.7-1.2,2.8-3.2,3.3,2.3.4,3.6,1.6,3.6,3.5,0,2.3-2,4.1-5.4,4.1h-9.4v-13c-.9-.3-1.5-.9-1.5-1.3v-.2Z"/></clipPath><clipPath id="clip-path-34" transform="translate(-355.14 -790.65)"><path class="cls-2" d="M598,809.25c-.7-.2-1.3-.9-1.3-1.3v-.1h3.8l8,8.3v-6.9c-.7-.2-1.3-.9-1.3-1.3v-.1h5v.1c0,.4-.6,1-1.3,1.3v9.4c.7.2,1.3.9,1.3,1.3v.1h-3.5l-8.3-8.5v7.1c.7.2,1.3.9,1.3,1.3v.1H598Z"/></clipPath><clipPath id="clip-path-36" transform="translate(-355.14 -790.65)"><path class="cls-2" d="M623.14,809.05a1.52,1.52,0,0,1-.6-1.1v-.1h5v.1c0,.6-.8,1.2-1.4,1.3l-4.4,3.7,4.9,5.7c.6.2,1.5.7,1.5,1.3v.1h-3.7l-4.6-5.6-1.9,1.5v2.7c.7.2,1.3.9,1.3,1.3v.1h-3.9v-10.8c-.7-.2-1.3-.9-1.3-1.3v-.1h5.2v.1c0,.4-.6,1-1.3,1.3v4.2Z"/></clipPath><clipPath id="clip-path-38" transform="translate(-355.14 -790.65)"><path class="cls-2" d="M588.34,810.85l-1.9,4.2a28,28,0,0,1,4.1,0l-2-4.3ZM586,820v.1h-5.1V820c0-.6.8-1.2,1.4-1.3l4.4-9.5c-.5-.2-1-.7-1-1.1V808h5.8v.1c0,.4-.6.9-1,1.1l4.7,9.5c.6.1,1.4.7,1.4,1.3v.1h-5.5V820c0-.6.7-1.1,1.2-1.2l-.7-1.5a20.78,20.78,0,0,0-6.1,0l-.7,1.5A1.16,1.16,0,0,1,586,820Z"/></clipPath></defs><title>53_Horizontal-logo</title><g class="cls-3"><g class="cls-4"><g class="cls-5"><g class="cls-6"><g class="cls-7"><g class="cls-6"><rect class="cls-8" width="50.1" height="45.7"/></g></g></g></g></g></g><g class="cls-9"><g class="cls-4"><rect class="cls-10" x="1.9" y="1.9" width="46.2" height="41.8"/></g></g><g class="cls-11"><g class="cls-4"><rect class="cls-12" x="3.2" y="3.2" width="43.7" height="39.3"/></g></g><g class="cls-13"><g class="cls-4"><rect class="cls-10" x="6.5" y="6.2" width="37.02" height="32.9"/></g></g><g class="cls-14"><g class="cls-4"><rect class="cls-10" x="53.8" y="9.9" width="23.3" height="24.5"/></g></g><g class="cls-15"><g class="cls-4"><rect class="cls-10" x="68.1" y="12.2" width="15.3" height="22.2"/></g></g><g class="cls-16"><g class="cls-4"><rect class="cls-10" x="75.1" y="12.2" width="22.8" height="22.2"/></g></g><g class="cls-17"><g class="cls-4"><rect class="cls-10" x="89" y="12.2" width="22.3" height="22.2"/></g></g><g class="cls-18"><g class="cls-4"><rect class="cls-10" x="102.7" y="12.2" width="25.4" height="22.2"/></g></g><g class="cls-19"><g class="cls-4"><rect class="cls-10" x="126.6" y="9.9" width="24.4" height="24.3"/></g></g><g class="cls-20"><g class="cls-4"><rect class="cls-10" x="142.3" y="12.2" width="25.5" height="22.2"/></g></g><g class="cls-21"><g class="cls-4"><rect class="cls-10" x="159.3" y="12.2" width="15.3" height="22.2"/></g></g><g class="cls-22"><g class="cls-4"><rect class="cls-10" x="166.3" y="12.2" width="24.3" height="22.2"/></g></g><g class="cls-23"><g class="cls-4"><rect class="cls-10" x="181.4" y="12.2" width="24.5" height="22.2"/></g></g><g class="cls-24"><g class="cls-4"><rect class="cls-10" x="204.5" y="10" width="26.3" height="24.5"/></g></g><g class="cls-25"><g class="cls-4"><rect class="cls-10" x="236.6" y="12.2" width="25.5" height="22.2"/></g></g><g class="cls-26"><g class="cls-4"><rect class="cls-10" x="253.9" y="12.2" width="24.1" height="22.2"/></g></g><g class="cls-27"><g class="cls-4"><rect class="cls-10" x="220.8" y="12.3" width="25.7" height="22.1"/></g></g></svg>