<?xml version="1.0" encoding="utf-8"?>
<!-- Generator: Adobe Illustrator 22.1.0, SVG Export Plug-In . SVG Version: 6.00 Build 0)  -->
<svg version="1.1" xmlns="http://www.w3.org/2000/svg" xmlns:xlink="http://www.w3.org/1999/xlink" x="0px" y="0px"
	 viewBox="0 0 264 236.2" style="enable-background:new 0 0 264 236.2;" xml:space="preserve">
<style type="text/css">
	.st0{fill:#00AE65;}
	.st1{fill:#FFFFFF;}
	.st2{fill:#1D4094;}
</style>
<g id="Layer_1">
	<g>
		<g>
			<path class="st0" d="M264,112.5V71.3c0-38.6-31.6-70.2-70.2-70.2H0v108.8v10.5v32.8v2V166c0,38.6,31.6,70.2,70.2,70.2H264v-77.1
				v-6v-32.8V112.5z"/>
			<path class="st1" d="M194,13.6H12.5v152.5c0,31.6,25.9,57.5,57.5,57.5h181.4V71.1C251.5,39.5,225.6,13.6,194,13.6"/>
			<path class="st2" d="M193.4,22H20.9v143.6c0,27.3,22.4,49.7,49.7,49.7h172.5V71.7C243.1,44.3,220.7,22,193.4,22"/>
			<path class="st1" d="M118.4,192.4l39.7-150.2l-9.4-0.3L109,192.5L118.4,192.4z M199.1,140.9c10.9-2.1,15.5-7.6,17-9.2
				c3.6-3.8,6-11.8,4.1-18.3c-1.9-6.5-5.1-10.8-10.4-14.9c-7.2-5.5-15-5.3-15-5.3l-42.1-0.1c17.8,6,21.5,21.4,21.5,21.4
				s6.6,20.8-20.8,26.3c0,0-0.4-0.1-0.1,0c2.4,0.8,8.9,4.1,14.3,9.6c4.8,4.9,6.4,12.2,6.4,12.2c4.4,21.5-21.4,26.8-21.4,26.8
				l41.1-0.1c14.3,0,20.7-7.9,21.9-9.2c3.6-3.8,6.7-11.1,5.3-17.5c-1.5-7-5.1-11.2-8.3-14C207.7,144.3,199.1,140.9,199.1,140.9
				C199,140.9,199.1,140.9,199.1,140.9 M111.7,131.9c3.9-4,5.3-12.6,3.2-19.6c-2-7-5.5-11.8-11.2-16.1c-7.7-5.9-15.6-6.4-15.6-6.4
				l-45.2-0.1c19.1,6.4,23.5,22.9,23.5,22.9c4.8,23.1-21.7,27.5-21.7,27.5h49.5C104.1,139.6,110.4,133.3,111.7,131.9 M107.5,46.1
				l-0.6,33.6l-64,0.1V46L107.5,46.1z"/>
		</g>
	</g>
</g>
<g id="_x33_D_x2F_text">
</g>
</svg>
