<svg id="Layer_1" data-name="Layer 1" xmlns="http://www.w3.org/2000/svg" viewBox="0 0 60.25 60.25"><defs><style>.cls-1{fill:#20448f;}.cls-2{fill:#46b66c;}.cls-3{fill:#fff;}</style></defs><title>user-Question-o</title><path class="cls-1" d="M626.9,859.24a29.78,29.78,0,0,0-6.2-9.29c-.08-.09-.16-.19-.25-.28-.69-.69-1.4-1.34-2.14-1.95a30.11,30.11,0,0,0-38.33,0c-.74.61-1.45,1.26-2.14,1.95a30.63,30.63,0,0,0-3.54,4.27,30,30,0,0,0,0,34.06,30.63,30.63,0,0,0,3.54,4.27c.69.69,1.41,1.34,2.15,2a30.12,30.12,0,0,0,38.31,0c.74-.62,1.46-1.27,2.15-2,.09-.09.17-.19.25-.28a30.11,30.11,0,0,0,6.2-32.75Zm-6.2,26.89A26.25,26.25,0,1,1,625.52,871,26.34,26.34,0,0,1,620.7,886.13Z" transform="translate(-569.02 -840.84)"/><path class="cls-2" d="M603.21,874.19l-.17-.05v-2.45A10.36,10.36,0,0,0,605.6,867c1,0,1.12-1,1.44-2.21.27-1-.08-2.21-1.1-2.21h0l.14-2.51a4,4,0,0,0,0-.6c0-3.34-3.1-6-6.91-6h0c-3.82,0-6.92,2.71-6.92,6,0,.2,0,.4,0,.6l.14,2.51h0c-1,0-1.38,1.25-1.11,2.21.32,1.17.46,2.19,1.44,2.21a10.36,10.36,0,0,0,2.56,4.67v2.45l-.17.05c-5.39,1.47-9.52,5.5-9.52,7.65v4.06h27.17v-4.06C612.73,879.69,608.6,875.66,603.21,874.19Z" transform="translate(-569.02 -840.84)"/><path class="cls-1" d="M617.93,876.15a9.68,9.68,0,0,0-7.12,2.88l2.75,3.61a6.35,6.35,0,0,1,4-1.82c1.32,0,2.09.58,2.09,1.52v0c0,1.16-1.13,1.93-4.32,2.2l-.25.22.71,4.63h3.31l.33-1.76c3-.78,5.36-2.23,5.36-5.7v-.06C624.81,878.32,622,876.15,617.93,876.15Z" transform="translate(-569.02 -840.84)"/><rect class="cls-1" x="45.64" y="50.19" width="5.42" height="4.68"/><path class="cls-3" d="M617.93,873.15a12.61,12.61,0,0,0-9.24,3.76l-1.86,1.86,1.59,2.09,2.75,3.6,1.05,1.37.34,2.2h-.9v10.68h11.42v-9.18a8,8,0,0,0,4.73-7.55v-.06C627.81,876.76,623.75,873.15,617.93,873.15Zm6.88,8.83c0,3.47-2.31,4.92-5.36,5.7l-.33,1.76h-3.31l-.71-4.63.25-.22c3.19-.27,4.32-1,4.32-2.2v0c0-.94-.77-1.52-2.09-1.52a6.35,6.35,0,0,0-4,1.82L610.81,879a9.68,9.68,0,0,1,7.12-2.88c4.05,0,6.88,2.17,6.88,5.77Zm-10.15,13.73V891h5.42v4.68Z" transform="translate(-569.02 -840.84)"/></svg>